<mxfile host="drawio-plugin" modified="2022-12-19T13:42:10.639Z" agent="5.0 (X11; Linux x86_64) AppleWebKit/537.36 (KHTML, like Gecko) Chrome/104.0.5112.102 Safari/537.36" etag="IQoErlrWjnl5gQFyCayG" version="20.5.3" type="embed"><diagram id="a7nnNqAxPxhrp0sOKCIs" name="Page-1"><mxGraphModel dx="1106" dy="1072" grid="1" gridSize="10" guides="1" tooltips="1" connect="1" arrows="1" fold="1" page="1" pageScale="1" pageWidth="1169" pageHeight="827" math="0" shadow="0"><root><mxCell id="0"/><mxCell id="1" parent="0"/><mxCell id="eK-2ea2avwDUNnB4NnFu-4" style="edgeStyle=orthogonalEdgeStyle;rounded=1;orthogonalLoop=1;jettySize=auto;html=1;sketch=1;endArrow=none;endFill=0;startArrow=block;startFill=1;" parent="1" source="eK-2ea2avwDUNnB4NnFu-1" target="eK-2ea2avwDUNnB4NnFu-3" edge="1"><mxGeometry relative="1" as="geometry"/></mxCell><mxCell id="eK-2ea2avwDUNnB4NnFu-1" value="&lt;br&gt;&lt;br&gt;InfluxDB&lt;br&gt;ver. 1.x" style="shape=cylinder2;whiteSpace=wrap;html=1;boundedLbl=1;backgroundOutline=1;size=15;fillColor=#ffe6cc;strokeColor=#d79b00;sketch=1;" parent="1" vertex="1"><mxGeometry x="460" y="75" width="60" height="80" as="geometry"/></mxCell><mxCell id="eK-2ea2avwDUNnB4NnFu-5" style="edgeStyle=orthogonalEdgeStyle;rounded=1;orthogonalLoop=1;jettySize=auto;html=1;sketch=1;" parent="1" source="eK-2ea2avwDUNnB4NnFu-2" target="eK-2ea2avwDUNnB4NnFu-1" edge="1"><mxGeometry relative="1" as="geometry"/></mxCell><mxCell id="eK-2ea2avwDUNnB4NnFu-2" value="&lt;div&gt;&lt;b&gt;SVC Insights&lt;/b&gt;&lt;/div&gt;" style="shape=process;whiteSpace=wrap;html=1;backgroundOutline=1;fillColor=#e1d5e7;strokeColor=#9673a6;sketch=1;shadow=0;glass=0;rounded=1;" parent="1" vertex="1"><mxGeometry x="279" y="85" width="120" height="60" as="geometry"/></mxCell><mxCell id="eK-2ea2avwDUNnB4NnFu-3" value="&lt;div&gt;Grafana&lt;/div&gt;&lt;div&gt;Dashboards&lt;/div&gt;&lt;div&gt;&amp;amp; Alerting&lt;br&gt;&lt;/div&gt;" style="shape=document;whiteSpace=wrap;html=1;boundedLbl=1;fillColor=#fff2cc;strokeColor=#d6b656;sketch=1;" parent="1" vertex="1"><mxGeometry x="570" y="75" width="120" height="80" as="geometry"/></mxCell><mxCell id="eK-2ea2avwDUNnB4NnFu-7" style="edgeStyle=orthogonalEdgeStyle;rounded=1;orthogonalLoop=1;jettySize=auto;html=1;sketch=1;startArrow=none;startFill=0;endArrow=classic;endFill=1;" parent="1" source="eK-2ea2avwDUNnB4NnFu-6" target="eK-2ea2avwDUNnB4NnFu-2" edge="1"><mxGeometry relative="1" as="geometry"/></mxCell><mxCell id="3" value="port 7443" style="edgeLabel;html=1;align=center;verticalAlign=middle;resizable=0;points=[];" parent="eK-2ea2avwDUNnB4NnFu-7" vertex="1" connectable="0"><mxGeometry x="-0.4631" y="-3" relative="1" as="geometry"><mxPoint x="-70" y="42" as="offset"/></mxGeometry></mxCell><mxCell id="eK-2ea2avwDUNnB4NnFu-6" value="&lt;div&gt;IBM&lt;br&gt;&lt;/div&gt;&lt;div&gt;Spectrum Virtualize&lt;/div&gt;" style="rounded=1;whiteSpace=wrap;html=1;fillColor=#dae8fc;strokeColor=#6c8ebf;sketch=1;" parent="1" vertex="1"><mxGeometry x="40" y="20" width="150" height="70" as="geometry"/></mxCell><mxCell id="eK-2ea2avwDUNnB4NnFu-9" style="edgeStyle=orthogonalEdgeStyle;rounded=1;orthogonalLoop=1;jettySize=auto;html=1;dashed=1;sketch=1;startArrow=none;startFill=0;endArrow=classic;endFill=1;" parent="1" source="eK-2ea2avwDUNnB4NnFu-8" target="eK-2ea2avwDUNnB4NnFu-2" edge="1"><mxGeometry relative="1" as="geometry"/></mxCell><mxCell id="eK-2ea2avwDUNnB4NnFu-8" value="&lt;div&gt;IBM&lt;/div&gt;&lt;div&gt;Spectrum Virtualize&lt;/div&gt;" style="rounded=1;whiteSpace=wrap;html=1;strokeColor=#6c8ebf;dashed=1;fillColor=#dae8fc;sketch=1;" parent="1" vertex="1"><mxGeometry x="40" y="145" width="150" height="70" as="geometry"/></mxCell><mxCell id="il_gvp9eyNAKFmqyvHfq-2" value="Runs on AIX &amp;amp; Linux" style="rounded=1;whiteSpace=wrap;html=1;dashed=1;fillColor=#ffffff;gradientColor=none;sketch=1;" parent="1" vertex="1"><mxGeometry x="460" y="168.5" width="230" height="40" as="geometry"/></mxCell><mxCell id="il_gvp9eyNAKFmqyvHfq-3" value="&lt;div&gt;Java 8+ Runtime on&lt;br&gt;&lt;/div&gt;&lt;div&gt;any Java supported platform.&lt;/div&gt;" style="rounded=1;whiteSpace=wrap;html=1;dashed=1;fillColor=#ffffff;gradientColor=none;sketch=1;" parent="1" vertex="1"><mxGeometry x="280" y="160" width="120" height="57" as="geometry"/></mxCell><mxCell id="4" value="port 8086" style="edgeLabel;html=1;align=center;verticalAlign=middle;resizable=0;points=[];" parent="1" vertex="1" connectable="0"><mxGeometry x="486" y="48" as="geometry"><mxPoint x="3" y="17" as="offset"/></mxGeometry></mxCell><mxCell id="5" value="port 3000" style="edgeLabel;html=1;align=center;verticalAlign=middle;resizable=0;points=[];" parent="1" vertex="1" connectable="0"><mxGeometry x="500" y="80" as="geometry"><mxPoint x="122" y="-16" as="offset"/></mxGeometry></mxCell><mxCell id="8" style="edgeStyle=orthogonalEdgeStyle;rounded=1;orthogonalLoop=1;jettySize=auto;html=1;startArrow=none;startFill=0;endArrow=classic;endFill=1;strokeColor=default;sketch=1;" parent="1" source="7" target="eK-2ea2avwDUNnB4NnFu-3" edge="1"><mxGeometry relative="1" as="geometry"/></mxCell><mxCell id="7" value="" style="shape=umlActor;verticalLabelPosition=bottom;verticalAlign=top;html=1;outlineConnect=0;sketch=1;" parent="1" vertex="1"><mxGeometry x="810" y="148.5" width="30" height="60" as="geometry"/></mxCell><mxCell id="HuDfst_B4G-cJXnaIiwU-9" style="edgeStyle=orthogonalEdgeStyle;rounded=1;orthogonalLoop=1;jettySize=auto;html=1;sketch=1;" parent="1" source="HuDfst_B4G-cJXnaIiwU-8" target="eK-2ea2avwDUNnB4NnFu-3" edge="1"><mxGeometry relative="1" as="geometry"/></mxCell><mxCell id="HuDfst_B4G-cJXnaIiwU-8" value="" style="shape=umlActor;verticalLabelPosition=bottom;verticalAlign=top;html=1;outlineConnect=0;sketch=1;" parent="1" vertex="1"><mxGeometry x="810" y="20" width="30" height="60" as="geometry"/></mxCell></root></mxGraphModel></diagram></mxfile>